<?xml version="1.0" standalone="no"?>
<!DOCTYPE svg PUBLIC "-//W3C//DTD SVG 20010904//EN"
 "http://www.w3.org/TR/2001/REC-SVG-20010904/DTD/svg10.dtd">
<svg version="1.0" xmlns="http://www.w3.org/2000/svg"
 width="1024.000000pt" height="1024.000000pt" viewBox="0 0 1024.000000 1024.000000"
 preserveAspectRatio="xMidYMid meet">
<metadata>
Created by potrace 1.14, written by Peter Selinger 2001-2017
</metadata>
<g transform="translate(0.000000,1024.000000) scale(0.100000,-0.100000)"
fill="#000000" stroke="none">
<path d="M2369 10236 c-2 -2 -33 -7 -69 -10 -250 -22 -512 -91 -768 -202 -98
-43 -125 -56 -252 -127 -262 -146 -551 -399 -744 -652 -34 -44 -64 -81 -68
-83 -5 -2 -8 -10 -8 -17 0 -7 -3 -15 -8 -17 -9 -4 -79 -113 -130 -205 -165
-295 -273 -639 -310 -988 -9 -91 -9 -5526 0 -5625 4 -41 9 -86 12 -100 2 -14
7 -43 10 -65 23 -156 99 -427 152 -542 7 -17 14 -34 14 -38 0 -4 31 -69 69
-145 321 -643 897 -1123 1582 -1319 99 -28 229 -58 294 -67 17 -2 44 -7 60
-10 17 -2 64 -8 105 -12 106 -10 5539 -9 5630 1 116 13 118 13 235 36 669 128
1271 535 1651 1116 68 103 66 101 144 256 103 204 183 433 215 618 3 19 8 37
10 40 3 6 8 33 21 123 2 18 8 67 12 108 10 102 9 5547 -1 5635 -13 110 -20
162 -32 215 -3 14 -10 46 -15 71 -23 115 -94 335 -148 461 -199 456 -507 827
-924 1112 -53 36 -100 66 -104 66 -4 0 -15 6 -23 14 -20 18 -259 138 -331 166
-149 60 -397 133 -494 146 -15 2 -35 6 -45 8 -9 3 -43 8 -76 12 -33 3 -69 9
-80 12 -22 7 -5579 15 -5586 8z m5001 -2285 c1 -20 1 -1233 1 -2696 l1 -2660
-414 0 -413 0 -2 2685 c-1 1477 0 2690 2 2697 3 8 112 11 414 11 l411 0 0 -37z
m-1990 -1485 c3 -1054 -1 -3860 -6 -3865 -3 -3 -190 -6 -415 -7 l-409 -1 0
1992 0 1991 415 0 415 0 0 -110z m-1997 -1385 c4 -1 7 -560 7 -1244 l0 -1243
-415 0 -415 0 0 1241 c0 683 2 1244 4 1246 3 3 790 3 819 0z"/>
</g>
</svg>
