<svg height="700pt" preserveAspectRatio="xMidYMid meet" viewBox="0 0 700 700" width="700pt" xmlns="http://www.w3.org/2000/svg"><path d="m1439 6996c-2-2-31-7-64-10-62-6-239-46-310-71-227-77-423-202-601-379-254-254-404-558-452-916-9-72-9-4203 0-4255 9-45 15-78 23-115 3-14 7-36 10-49 8-41 48-166 57-176 4-5 8-15 8-22 0-17 56-135 104-218 109-190 246-339 461-503 21-15 112-71 165-100 153-83 359-148 545-170 78-9 4163-9 4235 0 74 10 194 35 255 54 128 40 333 133 376 170 8 8 19 14 22 14 20 0 175 126 262 214 142 143 226 259 306 424 72 149 131 347 147 491 10 89 9 4158-1 4245-10 97-54 273-86 351-5 11-17 40-27 65-20 50-104 212-113 220-4 3-22 29-40 58-19 30-39 59-45 65-6 7-24 28-40 47-84 103-156 170-311 288-65 49-235 139-349 184-48 18-233 67-321 84-41 8-4208 18-4216 10zm3601-3380v-1844l-282 2-283 1-1 1843-1 1842h283 284zm-1363-482 1-1362h-284-284v1357c0 747 2 1360 5 1362 2 3 129 5 282 4h278zm-1363 326c2-8 4-391 3-851v-837h-284-283v847c0 466 2 850 4 852s129 4 280 4c237 0 277-2 280-15z" transform="matrix(.1 0 0 -.1 0 700)"/></svg>