<?xml version="1.0" standalone="no"?>
<!DOCTYPE svg PUBLIC "-//W3C//DTD SVG 20010904//EN"
 "http://www.w3.org/TR/2001/REC-SVG-20010904/DTD/svg10.dtd">
<svg version="1.0" xmlns="http://www.w3.org/2000/svg"
 width="700.000000pt" height="700.000000pt" viewBox="0 0 700.000000 700.000000"
 preserveAspectRatio="xMidYMid meet">
<metadata>
Created by potrace 1.14, written by Peter Selinger 2001-2017
</metadata>
<g transform="translate(0.000000,700.000000) scale(0.100000,-0.100000)"
fill="#000000" stroke="none">
<path d="M1439 6996 c-2 -2 -31 -7 -64 -10 -62 -6 -239 -46 -310 -71 -227 -77
-423 -202 -601 -379 -254 -254 -404 -558 -452 -916 -9 -72 -9 -4203 0 -4255 9
-45 15 -78 23 -115 3 -14 7 -36 10 -49 8 -41 48 -166 57 -176 4 -5 8 -15 8
-22 0 -17 56 -135 104 -218 109 -190 246 -339 461 -503 21 -15 112 -71 165
-100 153 -83 359 -148 545 -170 78 -9 4163 -9 4235 0 74 10 194 35 255 54 128
40 333 133 376 170 8 8 19 14 22 14 20 0 175 126 262 214 142 143 226 259 306
424 72 149 131 347 147 491 10 89 9 4158 -1 4245 -10 97 -54 273 -86 351 -5
11 -17 40 -27 65 -20 50 -104 212 -113 220 -4 3 -22 29 -40 58 -19 30 -39 59
-45 65 -6 7 -24 28 -40 47 -84 103 -156 170 -311 288 -65 49 -235 139 -349
184 -48 18 -233 67 -321 84 -41 8 -4208 18 -4216 10z m3601 -3380 l0 -1844
-282 2 -283 1 -1 1843 -1 1842 283 0 284 0 0 -1844z m-1363 -482 l1 -1362
-284 0 -284 0 0 1357 c0 747 2 1360 5 1362 2 3 129 5 282 4 l278 0 2 -1361z
m-1363 326 c2 -8 4 -391 3 -851 l0 -837 -284 0 -283 0 0 847 c0 466 2 850 4
852 2 2 129 4 280 4 237 0 277 -2 280 -15z"/>
</g>
</svg>
