<svg height="1024pt" preserveAspectRatio="xMidYMid meet" viewBox="0 0 1024 1024" width="1024pt" xmlns="http://www.w3.org/2000/svg"><path d="m2369 10236c-2-2-33-7-69-10-250-22-512-91-768-202-98-43-125-56-252-127-262-146-551-399-744-652-34-44-64-81-68-83-5-2-8-10-8-17s-3-15-8-17c-9-4-79-113-130-205-165-295-273-639-310-988-9-91-9-5526 0-5625 4-41 9-86 12-100 2-14 7-43 10-65 23-156 99-427 152-542 7-17 14-34 14-38s31-69 69-145c321-643 897-1123 1582-1319 99-28 229-58 294-67 17-2 44-7 60-10 17-2 64-8 105-12 106-10 5539-9 5630 1 116 13 118 13 235 36 669 128 1271 535 1651 1116 68 103 66 101 144 256 103 204 183 433 215 618 3 19 8 37 10 40 3 6 8 33 21 123 2 18 8 67 12 108 10 102 9 5547-1 5635-13 110-20 162-32 215-3 14-10 46-15 71-23 115-94 335-148 461-199 456-507 827-924 1112-53 36-100 66-104 66s-15 6-23 14c-20 18-259 138-331 166-149 60-397 133-494 146-15 2-35 6-45 8-9 3-43 8-76 12-33 3-69 9-80 12-22 7-5579 15-5586 8zm5001-2285c1-20 1-1233 1-2696l1-2660h-414-413l-2 2685c-1 1477 0 2690 2 2697 3 8 112 11 414 11h411zm-1990-1485c3-1054-1-3860-6-3865-3-3-190-6-415-7l-409-1v1992 1991h415 415zm-1997-1385c4-1 7-560 7-1244v-1243h-415-415v1241c0 683 2 1244 4 1246 3 3 790 3 819 0z" transform="matrix(.1 0 0 -.1 0 1024)"/></svg>